<?xml version="1.0" encoding="utf-8"?>
<svg xmlns="http://www.w3.org/2000/svg" xmlns:xlink="http://www.w3.org/1999/xlink" width="600" height="400" viewBox="0 0 2400 1600">
<defs>
  <clipPath id="clip0300">
    <rect x="0" y="0" width="2400" height="1600"/>
  </clipPath>
</defs>
<polygon clip-path="url(#clip0300)" points="
0,1600 2400,1600 2400,0 0,0 
  " fill="#ffffff" fill-rule="evenodd" fill-opacity="1"/>
<defs>
  <clipPath id="clip0301">
    <rect x="480" y="0" width="1681" height="1600"/>
  </clipPath>
</defs>
<polygon clip-path="url(#clip0300)" points="
202.885,1503.47 2321.26,1503.47 2321.26,47.2441 202.885,47.2441 
  " fill="#ffffff" fill-rule="evenodd" fill-opacity="1"/>
<defs>
  <clipPath id="clip0302">
    <rect x="202" y="47" width="2119" height="1457"/>
  </clipPath>
</defs>
<polyline clip-path="url(#clip0302)" style="stroke:#000000; stroke-width:2; stroke-opacity:0.1; fill:none" points="
  262.839,1503.47 262.839,47.2441 
  "/>
<polyline clip-path="url(#clip0302)" style="stroke:#000000; stroke-width:2; stroke-opacity:0.1; fill:none" points="
  762.456,1503.47 762.456,47.2441 
  "/>
<polyline clip-path="url(#clip0302)" style="stroke:#000000; stroke-width:2; stroke-opacity:0.1; fill:none" points="
  1262.07,1503.47 1262.07,47.2441 
  "/>
<polyline clip-path="url(#clip0302)" style="stroke:#000000; stroke-width:2; stroke-opacity:0.1; fill:none" points="
  1761.69,1503.47 1761.69,47.2441 
  "/>
<polyline clip-path="url(#clip0302)" style="stroke:#000000; stroke-width:2; stroke-opacity:0.1; fill:none" points="
  2261.31,1503.47 2261.31,47.2441 
  "/>
<polyline clip-path="url(#clip0302)" style="stroke:#000000; stroke-width:2; stroke-opacity:0.1; fill:none" points="
  202.885,1322.04 2321.26,1322.04 
  "/>
<polyline clip-path="url(#clip0302)" style="stroke:#000000; stroke-width:2; stroke-opacity:0.1; fill:none" points="
  202.885,1139.37 2321.26,1139.37 
  "/>
<polyline clip-path="url(#clip0302)" style="stroke:#000000; stroke-width:2; stroke-opacity:0.1; fill:none" points="
  202.885,956.705 2321.26,956.705 
  "/>
<polyline clip-path="url(#clip0302)" style="stroke:#000000; stroke-width:2; stroke-opacity:0.1; fill:none" points="
  202.885,774.035 2321.26,774.035 
  "/>
<polyline clip-path="url(#clip0302)" style="stroke:#000000; stroke-width:2; stroke-opacity:0.1; fill:none" points="
  202.885,591.366 2321.26,591.366 
  "/>
<polyline clip-path="url(#clip0302)" style="stroke:#000000; stroke-width:2; stroke-opacity:0.1; fill:none" points="
  202.885,408.696 2321.26,408.696 
  "/>
<polyline clip-path="url(#clip0302)" style="stroke:#000000; stroke-width:2; stroke-opacity:0.1; fill:none" points="
  202.885,226.027 2321.26,226.027 
  "/>
<polyline clip-path="url(#clip0300)" style="stroke:#000000; stroke-width:4; stroke-opacity:1; fill:none" points="
  202.885,1503.47 2321.26,1503.47 
  "/>
<polyline clip-path="url(#clip0300)" style="stroke:#000000; stroke-width:4; stroke-opacity:1; fill:none" points="
  202.885,1503.47 202.885,47.2441 
  "/>
<polyline clip-path="url(#clip0300)" style="stroke:#000000; stroke-width:4; stroke-opacity:1; fill:none" points="
  262.839,1503.47 262.839,1481.63 
  "/>
<polyline clip-path="url(#clip0300)" style="stroke:#000000; stroke-width:4; stroke-opacity:1; fill:none" points="
  762.456,1503.47 762.456,1481.63 
  "/>
<polyline clip-path="url(#clip0300)" style="stroke:#000000; stroke-width:4; stroke-opacity:1; fill:none" points="
  1262.07,1503.47 1262.07,1481.63 
  "/>
<polyline clip-path="url(#clip0300)" style="stroke:#000000; stroke-width:4; stroke-opacity:1; fill:none" points="
  1761.69,1503.47 1761.69,1481.63 
  "/>
<polyline clip-path="url(#clip0300)" style="stroke:#000000; stroke-width:4; stroke-opacity:1; fill:none" points="
  2261.31,1503.47 2261.31,1481.63 
  "/>
<polyline clip-path="url(#clip0300)" style="stroke:#000000; stroke-width:4; stroke-opacity:1; fill:none" points="
  202.885,1322.04 234.661,1322.04 
  "/>
<polyline clip-path="url(#clip0300)" style="stroke:#000000; stroke-width:4; stroke-opacity:1; fill:none" points="
  202.885,1139.37 234.661,1139.37 
  "/>
<polyline clip-path="url(#clip0300)" style="stroke:#000000; stroke-width:4; stroke-opacity:1; fill:none" points="
  202.885,956.705 234.661,956.705 
  "/>
<polyline clip-path="url(#clip0300)" style="stroke:#000000; stroke-width:4; stroke-opacity:1; fill:none" points="
  202.885,774.035 234.661,774.035 
  "/>
<polyline clip-path="url(#clip0300)" style="stroke:#000000; stroke-width:4; stroke-opacity:1; fill:none" points="
  202.885,591.366 234.661,591.366 
  "/>
<polyline clip-path="url(#clip0300)" style="stroke:#000000; stroke-width:4; stroke-opacity:1; fill:none" points="
  202.885,408.696 234.661,408.696 
  "/>
<polyline clip-path="url(#clip0300)" style="stroke:#000000; stroke-width:4; stroke-opacity:1; fill:none" points="
  202.885,226.027 234.661,226.027 
  "/>
<g clip-path="url(#clip0300)">
<text style="fill:#000000; fill-opacity:1; font-family:Arial,Helvetica Neue,Helvetica,sans-serif; font-size:48px; text-anchor:middle;" transform="rotate(0, 262.839, 1557.47)" x="262.839" y="1557.47">-1.0</text>
</g>
<g clip-path="url(#clip0300)">
<text style="fill:#000000; fill-opacity:1; font-family:Arial,Helvetica Neue,Helvetica,sans-serif; font-size:48px; text-anchor:middle;" transform="rotate(0, 762.456, 1557.47)" x="762.456" y="1557.47">-0.5</text>
</g>
<g clip-path="url(#clip0300)">
<text style="fill:#000000; fill-opacity:1; font-family:Arial,Helvetica Neue,Helvetica,sans-serif; font-size:48px; text-anchor:middle;" transform="rotate(0, 1262.07, 1557.47)" x="1262.07" y="1557.47">0.0</text>
</g>
<g clip-path="url(#clip0300)">
<text style="fill:#000000; fill-opacity:1; font-family:Arial,Helvetica Neue,Helvetica,sans-serif; font-size:48px; text-anchor:middle;" transform="rotate(0, 1761.69, 1557.47)" x="1761.69" y="1557.47">0.5</text>
</g>
<g clip-path="url(#clip0300)">
<text style="fill:#000000; fill-opacity:1; font-family:Arial,Helvetica Neue,Helvetica,sans-serif; font-size:48px; text-anchor:middle;" transform="rotate(0, 2261.31, 1557.47)" x="2261.31" y="1557.47">1.0</text>
</g>
<g clip-path="url(#clip0300)">
<text style="fill:#000000; fill-opacity:1; font-family:Arial,Helvetica Neue,Helvetica,sans-serif; font-size:48px; text-anchor:end;" transform="rotate(0, 178.885, 1339.54)" x="178.885" y="1339.54">-100</text>
</g>
<g clip-path="url(#clip0300)">
<text style="fill:#000000; fill-opacity:1; font-family:Arial,Helvetica Neue,Helvetica,sans-serif; font-size:48px; text-anchor:end;" transform="rotate(0, 178.885, 1156.87)" x="178.885" y="1156.87">0</text>
</g>
<g clip-path="url(#clip0300)">
<text style="fill:#000000; fill-opacity:1; font-family:Arial,Helvetica Neue,Helvetica,sans-serif; font-size:48px; text-anchor:end;" transform="rotate(0, 178.885, 974.205)" x="178.885" y="974.205">100</text>
</g>
<g clip-path="url(#clip0300)">
<text style="fill:#000000; fill-opacity:1; font-family:Arial,Helvetica Neue,Helvetica,sans-serif; font-size:48px; text-anchor:end;" transform="rotate(0, 178.885, 791.535)" x="178.885" y="791.535">200</text>
</g>
<g clip-path="url(#clip0300)">
<text style="fill:#000000; fill-opacity:1; font-family:Arial,Helvetica Neue,Helvetica,sans-serif; font-size:48px; text-anchor:end;" transform="rotate(0, 178.885, 608.866)" x="178.885" y="608.866">300</text>
</g>
<g clip-path="url(#clip0300)">
<text style="fill:#000000; fill-opacity:1; font-family:Arial,Helvetica Neue,Helvetica,sans-serif; font-size:48px; text-anchor:end;" transform="rotate(0, 178.885, 426.196)" x="178.885" y="426.196">400</text>
</g>
<g clip-path="url(#clip0300)">
<text style="fill:#000000; fill-opacity:1; font-family:Arial,Helvetica Neue,Helvetica,sans-serif; font-size:48px; text-anchor:end;" transform="rotate(0, 178.885, 243.527)" x="178.885" y="243.527">500</text>
</g>
<polyline clip-path="url(#clip0302)" style="stroke:#0000ff; stroke-width:4; stroke-opacity:1; fill:none" points="
  262.839,88.4582 312.801,146.584 362.763,204.837 412.724,263.182 462.686,321.599 512.648,380.053 562.609,438.489 612.571,496.871 662.533,555.124 712.494,613.195 
  762.456,670.991 812.418,728.404 862.379,785.269 912.341,841.422 962.303,896.551 1012.26,950.293 1062.23,1001.99 1112.19,1050.49 1162.15,1093.54 1212.11,1126.26 
  1262.07,1139.37 1312.03,1126.26 1362,1093.54 1411.96,1050.49 1461.92,1001.99 1511.88,950.293 1561.84,896.551 1611.8,841.422 1661.77,785.269 1711.73,728.404 
  1761.69,670.991 1811.65,613.195 1861.61,555.124 1911.57,496.871 1961.54,438.489 2011.5,380.053 2061.46,321.599 2111.42,263.182 2161.38,204.837 2211.34,146.584 
  2261.31,88.4582 
  "/>
<polyline clip-path="url(#clip0302)" style="stroke:#ff0000; stroke-width:4; stroke-opacity:1; fill:none" points="
  262.839,1462.26 312.801,1443.83 362.763,1426.6 412.724,1410.6 462.686,1395.86 512.648,1382.43 562.609,1370.38 612.571,1359.73 662.533,1350.56 712.494,1342.92 
  762.456,1336.89 812.418,1332.53 862.379,1329.92 912.341,1329.04 962.303,1329.81 1012.26,1331.87 1062.23,1333.99 1112.19,1331.89 1162.15,1320 1212.11,1304.18 
  1262.07,1296.47 1312.03,1304.18 1362,1320 1411.96,1331.89 1461.92,1333.99 1511.88,1331.87 1561.84,1329.81 1611.8,1329.04 1661.77,1329.92 1711.73,1332.53 
  1761.69,1336.89 1811.65,1342.92 1861.61,1350.56 1911.57,1359.73 1961.54,1370.38 2011.5,1382.43 2061.46,1395.86 2111.42,1410.6 2161.38,1426.6 2211.34,1443.83 
  2261.31,1462.26 
  "/>
</svg>
