<?xml version="1.0" encoding="utf-8"?>
<svg xmlns="http://www.w3.org/2000/svg" xmlns:xlink="http://www.w3.org/1999/xlink" width="600" height="400" viewBox="0 0 2400 1600">
<defs>
  <clipPath id="clip8800">
    <rect x="0" y="0" width="2400" height="1600"/>
  </clipPath>
</defs>
<polygon clip-path="url(#clip8800)" points="
0,1600 2400,1600 2400,0 0,0 
  " fill="#ffffff" fill-rule="evenodd" fill-opacity="1"/>
<defs>
  <clipPath id="clip8801">
    <rect x="480" y="0" width="1681" height="1600"/>
  </clipPath>
</defs>
<polygon clip-path="url(#clip8800)" points="
202.885,1503.47 2321.26,1503.47 2321.26,47.2441 202.885,47.2441 
  " fill="#ffffff" fill-rule="evenodd" fill-opacity="1"/>
<defs>
  <clipPath id="clip8802">
    <rect x="202" y="47" width="2119" height="1457"/>
  </clipPath>
</defs>
<polyline clip-path="url(#clip8802)" style="stroke:#000000; stroke-width:2; stroke-opacity:0.1; fill:none" points="
  262.839,1503.47 262.839,47.2441 
  "/>
<polyline clip-path="url(#clip8802)" style="stroke:#000000; stroke-width:2; stroke-opacity:0.1; fill:none" points="
  762.456,1503.47 762.456,47.2441 
  "/>
<polyline clip-path="url(#clip8802)" style="stroke:#000000; stroke-width:2; stroke-opacity:0.1; fill:none" points="
  1262.07,1503.47 1262.07,47.2441 
  "/>
<polyline clip-path="url(#clip8802)" style="stroke:#000000; stroke-width:2; stroke-opacity:0.1; fill:none" points="
  1761.69,1503.47 1761.69,47.2441 
  "/>
<polyline clip-path="url(#clip8802)" style="stroke:#000000; stroke-width:2; stroke-opacity:0.1; fill:none" points="
  2261.31,1503.47 2261.31,47.2441 
  "/>
<polyline clip-path="url(#clip8802)" style="stroke:#000000; stroke-width:2; stroke-opacity:0.1; fill:none" points="
  202.885,1328.1 2321.26,1328.1 
  "/>
<polyline clip-path="url(#clip8802)" style="stroke:#000000; stroke-width:2; stroke-opacity:0.1; fill:none" points="
  202.885,1143.39 2321.26,1143.39 
  "/>
<polyline clip-path="url(#clip8802)" style="stroke:#000000; stroke-width:2; stroke-opacity:0.1; fill:none" points="
  202.885,958.678 2321.26,958.678 
  "/>
<polyline clip-path="url(#clip8802)" style="stroke:#000000; stroke-width:2; stroke-opacity:0.1; fill:none" points="
  202.885,773.965 2321.26,773.965 
  "/>
<polyline clip-path="url(#clip8802)" style="stroke:#000000; stroke-width:2; stroke-opacity:0.1; fill:none" points="
  202.885,589.252 2321.26,589.252 
  "/>
<polyline clip-path="url(#clip8802)" style="stroke:#000000; stroke-width:2; stroke-opacity:0.1; fill:none" points="
  202.885,404.539 2321.26,404.539 
  "/>
<polyline clip-path="url(#clip8802)" style="stroke:#000000; stroke-width:2; stroke-opacity:0.1; fill:none" points="
  202.885,219.826 2321.26,219.826 
  "/>
<polyline clip-path="url(#clip8800)" style="stroke:#000000; stroke-width:4; stroke-opacity:1; fill:none" points="
  202.885,1503.47 2321.26,1503.47 
  "/>
<polyline clip-path="url(#clip8800)" style="stroke:#000000; stroke-width:4; stroke-opacity:1; fill:none" points="
  202.885,1503.47 202.885,47.2441 
  "/>
<polyline clip-path="url(#clip8800)" style="stroke:#000000; stroke-width:4; stroke-opacity:1; fill:none" points="
  262.839,1503.47 262.839,1481.63 
  "/>
<polyline clip-path="url(#clip8800)" style="stroke:#000000; stroke-width:4; stroke-opacity:1; fill:none" points="
  762.456,1503.47 762.456,1481.63 
  "/>
<polyline clip-path="url(#clip8800)" style="stroke:#000000; stroke-width:4; stroke-opacity:1; fill:none" points="
  1262.07,1503.47 1262.07,1481.63 
  "/>
<polyline clip-path="url(#clip8800)" style="stroke:#000000; stroke-width:4; stroke-opacity:1; fill:none" points="
  1761.69,1503.47 1761.69,1481.63 
  "/>
<polyline clip-path="url(#clip8800)" style="stroke:#000000; stroke-width:4; stroke-opacity:1; fill:none" points="
  2261.31,1503.47 2261.31,1481.63 
  "/>
<polyline clip-path="url(#clip8800)" style="stroke:#000000; stroke-width:4; stroke-opacity:1; fill:none" points="
  202.885,1328.1 234.661,1328.1 
  "/>
<polyline clip-path="url(#clip8800)" style="stroke:#000000; stroke-width:4; stroke-opacity:1; fill:none" points="
  202.885,1143.39 234.661,1143.39 
  "/>
<polyline clip-path="url(#clip8800)" style="stroke:#000000; stroke-width:4; stroke-opacity:1; fill:none" points="
  202.885,958.678 234.661,958.678 
  "/>
<polyline clip-path="url(#clip8800)" style="stroke:#000000; stroke-width:4; stroke-opacity:1; fill:none" points="
  202.885,773.965 234.661,773.965 
  "/>
<polyline clip-path="url(#clip8800)" style="stroke:#000000; stroke-width:4; stroke-opacity:1; fill:none" points="
  202.885,589.252 234.661,589.252 
  "/>
<polyline clip-path="url(#clip8800)" style="stroke:#000000; stroke-width:4; stroke-opacity:1; fill:none" points="
  202.885,404.539 234.661,404.539 
  "/>
<polyline clip-path="url(#clip8800)" style="stroke:#000000; stroke-width:4; stroke-opacity:1; fill:none" points="
  202.885,219.826 234.661,219.826 
  "/>
<g clip-path="url(#clip8800)">
<text style="fill:#000000; fill-opacity:1; font-family:Arial,Helvetica Neue,Helvetica,sans-serif; font-size:48px; text-anchor:middle;" transform="rotate(0, 262.839, 1557.47)" x="262.839" y="1557.47">-1.0</text>
</g>
<g clip-path="url(#clip8800)">
<text style="fill:#000000; fill-opacity:1; font-family:Arial,Helvetica Neue,Helvetica,sans-serif; font-size:48px; text-anchor:middle;" transform="rotate(0, 762.456, 1557.47)" x="762.456" y="1557.47">-0.5</text>
</g>
<g clip-path="url(#clip8800)">
<text style="fill:#000000; fill-opacity:1; font-family:Arial,Helvetica Neue,Helvetica,sans-serif; font-size:48px; text-anchor:middle;" transform="rotate(0, 1262.07, 1557.47)" x="1262.07" y="1557.47">0.0</text>
</g>
<g clip-path="url(#clip8800)">
<text style="fill:#000000; fill-opacity:1; font-family:Arial,Helvetica Neue,Helvetica,sans-serif; font-size:48px; text-anchor:middle;" transform="rotate(0, 1761.69, 1557.47)" x="1761.69" y="1557.47">0.5</text>
</g>
<g clip-path="url(#clip8800)">
<text style="fill:#000000; fill-opacity:1; font-family:Arial,Helvetica Neue,Helvetica,sans-serif; font-size:48px; text-anchor:middle;" transform="rotate(0, 2261.31, 1557.47)" x="2261.31" y="1557.47">1.0</text>
</g>
<g clip-path="url(#clip8800)">
<text style="fill:#000000; fill-opacity:1; font-family:Arial,Helvetica Neue,Helvetica,sans-serif; font-size:48px; text-anchor:end;" transform="rotate(0, 178.885, 1345.6)" x="178.885" y="1345.6">-100</text>
</g>
<g clip-path="url(#clip8800)">
<text style="fill:#000000; fill-opacity:1; font-family:Arial,Helvetica Neue,Helvetica,sans-serif; font-size:48px; text-anchor:end;" transform="rotate(0, 178.885, 1160.89)" x="178.885" y="1160.89">0</text>
</g>
<g clip-path="url(#clip8800)">
<text style="fill:#000000; fill-opacity:1; font-family:Arial,Helvetica Neue,Helvetica,sans-serif; font-size:48px; text-anchor:end;" transform="rotate(0, 178.885, 976.178)" x="178.885" y="976.178">100</text>
</g>
<g clip-path="url(#clip8800)">
<text style="fill:#000000; fill-opacity:1; font-family:Arial,Helvetica Neue,Helvetica,sans-serif; font-size:48px; text-anchor:end;" transform="rotate(0, 178.885, 791.465)" x="178.885" y="791.465">200</text>
</g>
<g clip-path="url(#clip8800)">
<text style="fill:#000000; fill-opacity:1; font-family:Arial,Helvetica Neue,Helvetica,sans-serif; font-size:48px; text-anchor:end;" transform="rotate(0, 178.885, 606.752)" x="178.885" y="606.752">300</text>
</g>
<g clip-path="url(#clip8800)">
<text style="fill:#000000; fill-opacity:1; font-family:Arial,Helvetica Neue,Helvetica,sans-serif; font-size:48px; text-anchor:end;" transform="rotate(0, 178.885, 422.039)" x="178.885" y="422.039">400</text>
</g>
<g clip-path="url(#clip8800)">
<text style="fill:#000000; fill-opacity:1; font-family:Arial,Helvetica Neue,Helvetica,sans-serif; font-size:48px; text-anchor:end;" transform="rotate(0, 178.885, 237.326)" x="178.885" y="237.326">500</text>
</g>
<polyline clip-path="url(#clip8802)" style="stroke:#0000ff; stroke-width:4; stroke-opacity:1; fill:none" points="
  262.839,88.4582 312.801,146.791 362.763,205.252 412.724,263.788 462.686,322.397 512.648,381.043 562.609,439.671 612.571,498.244 662.533,556.687 712.494,614.945 
  762.456,672.908 812.418,730.483 862.379,787.541 912.341,843.842 962.303,899.145 1012.26,953.062 1062.23,1004.91 1112.19,1053.62 1162.15,1096.95 1212.11,1130.04 
  1262.07,1143.39 1312.03,1130.04 1362,1096.95 1411.96,1053.62 1461.92,1004.91 1511.88,953.062 1561.84,899.145 1611.8,843.842 1661.77,787.541 1711.73,730.483 
  1761.69,672.908 1811.65,614.945 1861.61,556.687 1911.57,498.244 1961.54,439.671 2011.5,381.043 2061.46,322.397 2111.42,263.788 2161.38,205.252 2211.34,146.791 
  2261.31,88.4582 
  "/>
<polyline clip-path="url(#clip8802)" style="stroke:#ff0000; stroke-width:4; stroke-opacity:1; fill:none" points="
  262.839,1462.26 312.801,1443.81 362.763,1426.61 412.724,1410.67 462.686,1396.06 512.648,1382.78 562.609,1370.94 612.571,1360.54 662.533,1351.67 712.494,1344.38 
  762.456,1338.76 812.418,1334.85 862.379,1332.67 912.341,1332.22 962.303,1333.35 1012.26,1335.55 1062.23,1337.19 1112.19,1333.46 1162.15,1320.16 1212.11,1303.61 
  1262.07,1295.58 1312.03,1303.61 1362,1320.16 1411.96,1333.46 1461.92,1337.19 1511.88,1335.55 1561.84,1333.35 1611.8,1332.22 1661.77,1332.67 1711.73,1334.85 
  1761.69,1338.76 1811.65,1344.38 1861.61,1351.67 1911.57,1360.54 1961.54,1370.94 2011.5,1382.78 2061.46,1396.06 2111.42,1410.67 2161.38,1426.61 2211.34,1443.81 
  2261.31,1462.26 
  "/>
<polyline clip-path="url(#clip8802)" style="stroke:#3da44d; stroke-width:4; stroke-opacity:1; fill:none" points="
  1495.93,969.876 1200.96,1123.99 1089.33,1336.24 1262.07,1143.39 
  "/>
</svg>
